<svg width="998" height="958" viewBox="0 0 998 958" fill="none" xmlns="http://www.w3.org/2000/svg">
<path d="M685.361 178.617L685.341 178.599C654.182 148.738 603.663 148.738 572.503 178.599L443.222 302.492C412.063 332.352 412.063 380.766 443.222 410.627L443.241 410.645C474.401 440.506 524.92 440.506 556.08 410.645L685.361 286.753C716.52 256.892 716.52 208.478 685.361 178.617Z" fill="#215189"/>
<path d="M555.432 54.086L555.412 54.0676C524.253 24.2069 473.734 24.2069 442.574 54.0676L313.293 177.96C282.134 207.821 282.134 256.235 313.293 286.095L313.312 286.114C344.472 315.974 394.991 315.974 426.15 286.114L555.432 162.221C586.591 132.36 586.591 83.9467 555.432 54.086Z" fill="#215189"/>
<path d="M684.063 670.951L684.044 670.932C652.884 641.072 602.365 641.072 571.205 670.932L441.924 794.825C410.765 824.686 410.765 873.099 441.924 902.96L441.943 902.978C473.103 932.839 523.622 932.839 554.782 902.978L684.063 779.086C715.222 749.225 715.222 700.812 684.063 670.951Z" fill="#215189"/>
<path d="M554.786 547.078L554.767 547.06C523.607 517.199 473.088 517.199 441.928 547.06L312.647 670.953C281.488 700.813 281.488 749.227 312.647 779.088L312.666 779.106C343.826 808.967 394.345 808.967 425.505 779.106L554.786 655.213C585.945 625.353 585.945 576.939 554.786 547.078Z" fill="#215189"/>
<path d="M298.539 657.432L298.558 657.414C329.717 627.553 329.717 579.14 298.558 549.279L169.277 425.386C138.117 395.525 87.598 395.525 56.4385 425.386L56.4194 425.404C25.2599 455.265 25.2599 503.679 56.4194 533.54L185.7 657.432C216.86 687.293 267.379 687.293 298.539 657.432Z" fill="#215189"/>
<path d="M427.118 532.903L427.137 532.885C458.297 503.024 458.297 454.61 427.137 424.75L297.856 300.857C266.697 270.996 216.178 270.996 185.018 300.857L184.999 300.876C153.839 330.736 153.839 379.15 184.999 409.011L314.28 532.903C345.439 562.764 395.959 562.764 427.118 532.903Z" fill="#215189"/>
<path d="M699.461 300.241L699.442 300.26C668.283 330.12 668.283 378.534 699.442 408.395L828.723 532.287C859.883 562.148 910.402 562.148 941.562 532.287L941.581 532.269C972.74 502.408 972.74 453.995 941.581 424.134L812.3 300.241C781.14 270.381 730.621 270.381 699.461 300.241Z" fill="#215189"/>
<path d="M570.21 424.114L570.191 424.132C539.031 453.993 539.031 502.407 570.191 532.268L699.472 656.16C730.631 686.021 781.151 686.021 812.31 656.16L812.329 656.142C843.489 626.281 843.489 577.868 812.329 548.007L683.048 424.114C651.889 394.253 601.369 394.253 570.21 424.114Z" fill="#215189"/>
</svg>
